<?xml version="1.0" encoding="UTF-8"?>
<svg width="153px" height="23px" viewBox="0 0 153 23" version="1.1" xmlns="http://www.w3.org/2000/svg" xmlns:xlink="http://www.w3.org/1999/xlink">
    <!-- Generator: Sketch 56 (81588) - https://sketch.com -->
    <title>logo</title>
    <desc>Created with Sketch.</desc>
    <g id="awesomeShop" stroke="none" stroke-width="1" fill="none" fill-rule="evenodd">
        <g id="Página-de-Inicio----desktop" transform="translate(-122.000000, -37.000000)" fill="#FFFFFF" fill-rule="nonzero">
            <g id="header">
                <g id="logo" transform="translate(122.000000, 31.000000)">
                    <path d="M0,24 L5.70703125,7.1953125 L10.6054688,7.1953125 L16.3242188,24 L12.1171875,24 L11.2851562,21.3632812 L5.0390625,21.3632812 L4.1953125,24 L0,24 Z M6.1875,17.765625 L10.125,17.765625 L8.15625,11.5898438 L6.1875,17.765625 Z M14.9492188,12 L18.7929688,12 L20.515625,18.4335938 L22.390625,12 L25.7539062,12 L27.6289062,18.4335938 L29.3515625,12 L33.1953125,12 L29.3515625,24 L25.9882812,24 L24.0664062,17.5898438 L22.15625,24 L18.7929688,24 L14.9492188,12 Z M32.5351562,18 C32.5351562,16.8124941 32.8007786,15.7382861 33.3320312,14.7773438 C33.8632839,13.8164014 34.6171826,13.0566434 35.59375,12.4980469 C36.5703174,11.9394503 37.6796813,11.6601562 38.921875,11.6601562 C40.6718837,11.6601562 42.1249942,12.2636658 43.28125,13.4707031 C44.4375058,14.6777404 45.015625,16.1874909 45.015625,18 C45.015625,18.5000025 44.9687505,18.9804664 44.875,19.4414062 L36.3554688,19.4414062 C36.7695333,20.5585993 37.7304612,21.1171875 39.2382812,21.1171875 C39.7148461,21.1171875 40.1542949,21.033204 40.5566406,20.8652344 C40.9589864,20.6972648 41.285155,20.4765639 41.5351562,20.203125 L44.4179688,21.8671875 C43.2304628,23.5156332 41.4882927,24.3398438 39.1914062,24.3398438 C38.1835887,24.3398438 37.2617229,24.177736 36.4257812,23.8535156 C35.5898396,23.5292953 34.8886747,23.0820341 34.3222656,22.5117188 C33.7558565,21.9414034 33.3164078,21.2695351 33.0039062,20.4960938 C32.6914047,19.7226524 32.5351562,18.8906295 32.5351562,18 Z M36.2851562,16.7578125 L41.4414062,16.7578125 C41.2617179,16.1015592 40.9414086,15.6210953 40.4804688,15.3164062 C40.0195289,15.0117172 39.4921905,14.859375 38.8984375,14.859375 C38.2187466,14.859375 37.6562522,15.0234359 37.2109375,15.3515625 C36.7656228,15.6796891 36.4570321,16.1484345 36.2851562,16.7578125 Z M44.7304688,21.4804688 L47.8476562,19.6992188 C48.1757829,20.644536 48.8554636,21.1171875 49.8867188,21.1171875 C50.7539106,21.1171875 51.1875,20.8710962 51.1875,20.3789062 C51.1875,20.2070304 51.0781261,20.0546882 50.859375,19.921875 C50.6406239,19.7890618 50.3593767,19.6718755 50.015625,19.5703125 C49.6718733,19.4687495 49.2890646,19.3613287 48.8671875,19.2480469 C48.4453104,19.1347651 48.0234396,18.9843759 47.6015625,18.796875 C47.1796854,18.6093741 46.7968767,18.38672 46.453125,18.1289062 C46.1093733,17.8710925 45.8281261,17.5253928 45.609375,17.0917969 C45.3906239,16.658201 45.28125,16.1601562 45.28125,15.5976562 C45.28125,14.7617146 45.5019509,14.0390655 45.9433594,13.4296875 C46.3847678,12.8203095 46.9550746,12.3730483 47.6542969,12.0878906 C48.3535191,11.8027329 49.128902,11.6601562 49.9804688,11.6601562 C50.9726612,11.6601562 51.8789021,11.8789041 52.6992188,12.3164062 C53.5195354,12.7539084 54.1757788,13.3906208 54.6679688,14.2265625 L51.5976562,15.890625 C51.2148418,15.1874965 50.6757847,14.8359375 49.9804688,14.8359375 C49.6679672,14.8359375 49.4218759,14.8945307 49.2421875,15.0117188 C49.0624991,15.1289068 48.9726562,15.2929677 48.9726562,15.5039062 C48.9726562,15.6835946 49.0820302,15.83789 49.3007812,15.9667969 C49.5195323,16.0957038 49.8007795,16.2070308 50.1445312,16.3007812 C50.488283,16.3945317 50.8710916,16.4960932 51.2929688,16.6054688 C51.7148459,16.7148443 52.1367166,16.8632803 52.5585938,17.0507812 C52.9804709,17.2382822 53.3632795,17.4628893 53.7070312,17.7246094 C54.050783,17.9863294 54.3320302,18.3476539 54.5507812,18.8085938 C54.7695323,19.2695336 54.8789062,19.8007782 54.8789062,20.4023438 C54.8789062,21.0664096 54.7421889,21.6582005 54.46875,22.1777344 C54.1953111,22.6972682 53.822268,23.1093735 53.3496094,23.4140625 C52.8769508,23.7187515 52.3476592,23.949218 51.7617188,24.1054688 C51.1757783,24.2617195 50.5507846,24.3398438 49.8867188,24.3398438 C47.3710812,24.3398438 45.6523484,23.3867283 44.7304688,21.4804688 Z M55.8007812,21.2226562 C55.2382784,20.2460889 54.9570312,19.1718809 54.9570312,18 C54.9570312,16.8281191 55.2402315,15.7558642 55.8066406,14.7832031 C56.3730497,13.810542 57.1425733,13.0468778 58.1152344,12.4921875 C59.0878955,11.9374972 60.1562442,11.6601562 61.3203125,11.6601562 C62.4843808,11.6601562 63.5527295,11.9374972 64.5253906,12.4921875 C65.4980517,13.0468778 66.2675753,13.810542 66.8339844,14.7832031 C67.4003935,15.7558642 67.6835938,16.8281191 67.6835938,18 C67.6835938,19.1718809 67.4003935,20.2441358 66.8339844,21.2167969 C66.2675753,22.189458 65.4980517,22.9531222 64.5253906,23.5078125 C63.5527295,24.0625028 62.4843808,24.3398438 61.3203125,24.3398438 C60.1562442,24.3398438 59.0878955,24.0625028 58.1152344,23.5078125 C57.1425733,22.9531222 56.3710966,22.1914111 55.8007812,21.2226562 Z M59.3515625,15.9609375 C58.8281224,16.4843776 58.5664062,17.1640625 58.5664062,18 C58.5664062,18.8359417 58.8281224,19.5175755 59.3515625,20.0449219 C59.8750026,20.5722683 60.5312461,20.8359375 61.3203125,20.8359375 C62.1093789,20.8359375 62.7675755,20.5722683 63.2949219,20.0449219 C63.8222683,19.5175755 64.0859375,18.8359417 64.0859375,18 C64.0859375,17.1640625 63.8222683,16.4824245 63.2949219,15.9550781 C62.7675755,15.4277317 62.1093789,15.1640625 61.3203125,15.1640625 C60.5312461,15.1640625 59.8750026,15.4296848 59.3515625,15.9609375 Z M68.7226562,24 L68.7226562,12 L72.3203125,12 L72.3203125,13.1015625 C72.9687532,12.1406202 74.039055,11.6601562 75.53125,11.6601562 C76.937507,11.6601562 77.9882778,12.1874947 78.6835938,13.2421875 C79.4179724,12.1874947 80.5781171,11.6601562 82.1640625,11.6601562 C83.5468819,11.6601562 84.6523396,12.1132767 85.4804688,13.0195312 C86.3085979,13.9257858 86.7226562,15.1288988 86.7226562,16.6289062 L86.7226562,24 L83.1132812,24 L83.1132812,16.9453125 C83.1132812,16.3359345 82.9667983,15.8554705 82.6738281,15.5039062 C82.3808579,15.152342 81.9531278,14.9765625 81.390625,14.9765625 C80.796872,14.9765625 80.3359391,15.1738262 80.0078125,15.5683594 C79.6796859,15.9628926 79.515625,16.5156214 79.515625,17.2265625 L79.515625,24 L75.9179688,24 L75.9179688,16.9453125 C75.9179688,16.3359345 75.7714858,15.8554705 75.4785156,15.5039062 C75.1855454,15.152342 74.7578153,14.9765625 74.1953125,14.9765625 C73.6015595,14.9765625 73.1406266,15.1738262 72.8125,15.5683594 C72.4843734,15.9628926 72.3203125,16.5156214 72.3203125,17.2265625 L72.3203125,24 L68.7226562,24 Z M87.5742188,18 C87.5742188,16.8124941 87.8398411,15.7382861 88.3710938,14.7773438 C88.9023464,13.8164014 89.6562451,13.0566434 90.6328125,12.4980469 C91.6093799,11.9394503 92.7187438,11.6601562 93.9609375,11.6601562 C95.7109462,11.6601562 97.1640567,12.2636658 98.3203125,13.4707031 C99.4765683,14.6777404 100.054688,16.1874909 100.054688,18 C100.054688,18.5000025 100.007813,18.9804664 99.9140625,19.4414062 L91.3945312,19.4414062 C91.8085958,20.5585993 92.7695237,21.1171875 94.2773438,21.1171875 C94.7539086,21.1171875 95.1933574,21.033204 95.5957031,20.8652344 C95.9980489,20.6972648 96.3242175,20.4765639 96.5742188,20.203125 L99.4570312,21.8671875 C98.2695253,23.5156332 96.5273552,24.3398438 94.2304688,24.3398438 C93.2226512,24.3398438 92.3007854,24.177736 91.4648438,23.8535156 C90.6289021,23.5292953 89.9277372,23.0820341 89.3613281,22.5117188 C88.794919,21.9414034 88.3554703,21.2695351 88.0429688,20.4960938 C87.7304672,19.7226524 87.5742188,18.8906295 87.5742188,18 Z M91.3242188,16.7578125 L96.4804688,16.7578125 C96.3007804,16.1015592 95.9804711,15.6210953 95.5195312,15.3164062 C95.0585914,15.0117172 94.531253,14.859375 93.9375,14.859375 C93.2578091,14.859375 92.6953147,15.0234359 92.25,15.3515625 C91.8046853,15.6796891 91.4960946,16.1484345 91.3242188,16.7578125 Z M99.8867188,20.1796875 L103.203125,18.2695312 C103.867191,19.816414 105.04296,20.5898438 106.730469,20.5898438 C107.558598,20.5898438 108.14453,20.4570326 108.488281,20.1914062 C108.832033,19.9257799 109.003906,19.6015644 109.003906,19.21875 C109.003906,18.72656 108.757815,18.3398452 108.265625,18.0585938 C107.773435,17.7773423 106.859382,17.4531268 105.523438,17.0859375 C104.968747,16.9296867 104.474612,16.7656259 104.041016,16.59375 C103.60742,16.4218741 103.166018,16.1953139 102.716797,15.9140625 C102.267576,15.6328111 101.894533,15.316408 101.597656,14.9648438 C101.30078,14.6132795 101.058595,14.1816432 100.871094,13.6699219 C100.683593,13.1582006 100.589844,12.5937531 100.589844,11.9765625 C100.589844,11.1953086 100.746092,10.4765658 101.058594,9.8203125 C101.371095,9.16405922 101.791013,8.62500211 102.318359,8.203125 C102.845706,7.78124789 103.445309,7.45312617 104.117188,7.21875 C104.789066,6.98437383 105.492184,6.8671875 106.226562,6.8671875 C107.609382,6.8671875 108.826167,7.1894499 109.876953,7.83398438 C110.92774,8.47851885 111.757809,9.41796258 112.367188,10.6523438 L109.132812,12.5507812 C108.828123,11.910153 108.449221,11.4257829 107.996094,11.0976562 C107.542966,10.7695296 106.953129,10.6054688 106.226562,10.6054688 C105.656247,10.6054688 105.212892,10.7285144 104.896484,10.9746094 C104.580077,11.2207044 104.421875,11.5234357 104.421875,11.8828125 C104.421875,12.1640639 104.490234,12.4023428 104.626953,12.5976562 C104.763673,12.7929697 105.054685,13.0058582 105.5,13.2363281 C105.945315,13.466798 106.593746,13.7109362 107.445312,13.96875 C107.92969,14.1171882 108.30078,14.2343746 108.558594,14.3203125 C108.816408,14.4062504 109.167967,14.5390616 109.613281,14.71875 C110.058596,14.8984384 110.406249,15.0683586 110.65625,15.2285156 C110.906251,15.3886727 111.189452,15.6035143 111.505859,15.8730469 C111.822267,16.1425795 112.064452,16.4277329 112.232422,16.7285156 C112.400391,17.0292984 112.544921,17.3886698 112.666016,17.8066406 C112.78711,18.2246115 112.847656,18.679685 112.847656,19.171875 C112.847656,20.765633 112.27149,22.025386 111.119141,22.9511719 C109.966791,23.8769578 108.464853,24.3398438 106.613281,24.3398438 C104.902335,24.3398438 103.474615,23.9668006 102.330078,23.2207031 C101.185541,22.4746056 100.371096,21.4609439 99.8867188,20.1796875 Z M113.652344,24 L113.652344,7.1953125 L117.25,7.1953125 L117.25,13.125 C117.578127,12.6718727 118.03906,12.3144544 118.632812,12.0527344 C119.226565,11.7910143 119.910152,11.6601562 120.683594,11.6601562 C121.957038,11.6601562 123.023433,12.099605 123.882812,12.9785156 C124.742192,13.8574263 125.171875,15.074211 125.171875,16.6289062 L125.171875,24 L121.5625,24 L121.5625,17.15625 C121.5625,16.4453089 121.367189,15.9042987 120.976562,15.5332031 C120.585936,15.1621075 120.085941,14.9765625 119.476562,14.9765625 C118.789059,14.9765625 118.246096,15.1835917 117.847656,15.5976562 C117.449217,16.0117208 117.25,16.6289021 117.25,17.4492188 L117.25,24 L113.652344,24 Z M126.867188,21.2226562 C126.304685,20.2460889 126.023438,19.1718809 126.023438,18 C126.023438,16.8281191 126.306638,15.7558642 126.873047,14.7832031 C127.439456,13.810542 128.20898,13.0468778 129.181641,12.4921875 C130.154302,11.9374972 131.22265,11.6601562 132.386719,11.6601562 C133.550787,11.6601562 134.619136,11.9374972 135.591797,12.4921875 C136.564458,13.0468778 137.333982,13.810542 137.900391,14.7832031 C138.4668,15.7558642 138.75,16.8281191 138.75,18 C138.75,19.1718809 138.4668,20.2441358 137.900391,21.2167969 C137.333982,22.189458 136.564458,22.9531222 135.591797,23.5078125 C134.619136,24.0625028 133.550787,24.3398438 132.386719,24.3398438 C131.22265,24.3398438 130.154302,24.0625028 129.181641,23.5078125 C128.20898,22.9531222 127.437503,22.1914111 126.867188,21.2226562 Z M130.417969,15.9609375 C129.894529,16.4843776 129.632812,17.1640625 129.632812,18 C129.632812,18.8359417 129.894529,19.5175755 130.417969,20.0449219 C130.941409,20.5722683 131.597652,20.8359375 132.386719,20.8359375 C133.175785,20.8359375 133.833982,20.5722683 134.361328,20.0449219 C134.888675,19.5175755 135.152344,18.8359417 135.152344,18 C135.152344,17.1640625 134.888675,16.4824245 134.361328,15.9550781 C133.833982,15.4277317 133.175785,15.1640625 132.386719,15.1640625 C131.597652,15.1640625 130.941409,15.4296848 130.417969,15.9609375 Z M139.789062,28.8046875 L139.789062,12 L143.386719,12 L143.386719,13.125 C144.238286,12.1484326 145.42968,11.6601562 146.960938,11.6601562 C148.53907,11.6601562 149.888666,12.2734314 151.009766,13.5 C152.130865,14.7265686 152.691406,16.2265536 152.691406,18 C152.691406,19.7734464 152.130865,21.2734314 151.009766,22.5 C149.888666,23.7265686 148.53907,24.3398438 146.960938,24.3398438 C145.42968,24.3398438 144.238286,23.8515674 143.386719,22.875 L143.386719,28.8046875 L139.789062,28.8046875 Z M144.183594,15.8671875 C143.652341,16.3984402 143.386719,17.1093705 143.386719,18 C143.386719,18.8906295 143.654294,19.6015598 144.189453,20.1328125 C144.724612,20.6640652 145.410152,20.9296875 146.246094,20.9296875 C147.082035,20.9296875 147.765622,20.6640652 148.296875,20.1328125 C148.828128,19.6015598 149.09375,18.8906295 149.09375,18 C149.09375,17.1093705 148.828128,16.3984402 148.296875,15.8671875 C147.765622,15.3359348 147.082035,15.0703125 146.246094,15.0703125 C145.410152,15.0703125 144.722659,15.3359348 144.183594,15.8671875 Z" id="AwesomeShop"></path>
                </g>
            </g>
        </g>
    </g>
</svg>